<svg width="840" height="980" viewBox="0 0 840 980" fill="none" xmlns="http://www.w3.org/2000/svg">
<path fill-rule="evenodd" clip-rule="evenodd" d="M819.9 794.5L600.5 467.5C572.5 423.1 558.9 370.4 558.9 313.9V110.5C558.9 81.5809 571.514 58.4871 581.302 40.5663C585.967 32.0264 589.99 24.6611 591.7 18.4C596.7 0 592.8 0 558.5 0H281.2C246.2 0 240.6 0 245.5 18.4C247.244 24.9499 251.459 32.7347 256.328 41.7297C266.253 60.0633 278.9 83.4238 278.9 111.6V313.9C278.9 370.3 263 422.8 235 467.5L127.2 634.8L19.8 794.3C7.09998 814 0 839.6 0 864.7C0 926 35.7 980 138.3 980H194.84C188.66 872.873 29 816.222 29 816.222C157.761 766.799 242.242 850.232 242.242 850.232C242.242 802.845 194.84 758.549 194.84 758.549C262.854 754.439 305.095 815.202 305.095 815.202C305.095 720.446 201.035 650.417 201.035 650.417C350.421 628.781 410.185 788.419 410.185 788.419C410.185 661.738 532.775 567 532.775 567C490.539 656.594 509.095 783.263 509.095 783.263C568.827 691.611 698.639 692.645 698.639 692.645C604.887 733.837 587.394 834.757 587.394 834.757C673.917 759.569 801.684 793.579 801.684 793.579C717.206 807.991 665.669 893.481 665.669 893.481C721.317 857.427 813 882.144 813 882.144C730.585 887.298 637.859 980 637.859 980H701.8C804.6 980 840 926 840 864.7C839.8 839.6 832.6 814.2 819.9 794.5ZM378 535C397.33 535 413 519.33 413 500C413 480.67 397.33 465 378 465C358.67 465 343 480.67 343 500C343 519.33 358.67 535 378 535ZM413 262C413 281.33 397.33 297 378 297C358.67 297 343 281.33 343 262C343 242.67 358.67 227 378 227C397.33 227 413 242.67 413 262ZM455 437C474.33 437 490 421.33 490 402C490 382.67 474.33 367 455 367C435.67 367 420 382.67 420 402C420 421.33 435.67 437 455 437Z" fill="#495057"/>
</svg>
